# xmcd
#
# Track frame offsets:
#   150
#   15938
#   33321
#   46020
#   58710
#   77767
#   99427
#   117902
#   138579
#   155745
#   172776
#
# Disc length: 2456 seconds
#
# Revision: 0
# Processed by: cddbd v1.5.1PL0 Copyright (c) Steve Scherf et al.
# Submitted via: Media_Universe 3.0
#
DISCID=7d09960b
DTITLE=Trent Willmon - Trent Willmon
DYEAR=1900
DGENRE=Country
TTITLE0=Beer Man
TTITLE1=Dixie Rose Deluxes Honky Tonk Feed Store Gun Shop Used Car Beer Bake Barber Shop Laundramat
TTITLE2=She Dont Love Me
TTITLE3=The Good Life
TTITLE4=Population 81
TTITLE5=Medina Daydreaming
TTITLE6=The Wishing Well
TTITLE7=All Day Long
TTITLE8=Every Now And Then
TTITLE9=Here 
TTITLE10=If You Love Somebody
EXTD=
EXTT0=
EXTT1=
EXTT2=
EXTT3=
EXTT4=
EXTT5=
EXTT6=
EXTT7=
EXTT8=
EXTT9=
EXTT10=
PLAYORDER=
